<?xml version="1.0" encoding="UTF-8"?>
<svg id="target" viewBox="0 0 80 80" version="1.1" xmlns="http://www.w3.org/2000/svg" xmlns:xlink="http://www.w3.org/1999/xlink">
    <!-- Generator: Sketch 45.1 (43504) - http://www.bohemiancoding.com/sketch -->
    <title>app-icon</title>
    <desc>Created with Sketch.</desc>
    <defs>
        <path d="M30.5,53 C42.9264069,53 53,42.9264069 53,30.5 C53,18.0735931 42.9264069,8 30.5,8 C18.0735931,8 8,18.0735931 8,30.5 C8,42.9264069 18.0735931,53 30.5,53 Z" id="path-1"></path>
        <linearGradient x1="50%" y1="0%" x2="50%" y2="98.7902583%" id="linearGradient-2">
            <stop stop-color="#444444" offset="0%"></stop>
            <stop stop-color="#222222" offset="100%"></stop>
        </linearGradient>
        <path d="M36,29 L39,29 L39,32 L36,32 L36,29 Z M30,29 L33,29 L33,32 L30,32 L30,29 Z M30,35 L33,35 L33,38 L30,38 L30,35 Z M36,35 L39,35 L39,38 L36,38 L36,35 Z M30,41 L33,41 L33,44 L30,44 L30,41 Z M30,47 L33,47 L33,50 L30,50 L30,47 Z M36,41 L39,41 L39,44 L36,44 L36,41 Z M42,41 L45,41 L45,44 L42,44 L42,41 Z M42,23 L45,23 L45,26 L42,26 L42,23 Z M42,17 L45,17 L45,20 L42,20 L42,17 Z M42,29 L45,29 L45,32 L42,32 L42,29 Z M42,35 L45,35 L45,38 L42,38 L42,35 Z M30,23 L33,23 L33,26 L30,26 L30,23 Z M36,17 L39,17 L39,20 L36,20 L36,17 Z M30,17 L33,17 L33,20 L30,20 L30,17 Z M30,11 L33,11 L33,14 L30,14 L30,11 Z M36,23 L39,23 L39,26 L36,26 L36,23 Z" id="path-3"></path>
    </defs>
    <g id="Symbols" stroke="none" stroke-width="1" fill="none" fill-rule="evenodd">
        <g id="app-icon">
            <g id="Group" transform="translate(10.000000, 10.000000)">
                <circle id="Oval" fill="#FFFFFF" cx="30" cy="30" r="30"></circle>
                <path d="M18.1852768,57.0222726 C22.0494537,58.9288193 26.399633,60 31,60 C41.9701165,60 51.5175655,53.9088364 56.4447245,44.9241316 L43.3640712,31.8434783 L18.1852768,57.0222726 Z" id="yellow" fill="#FFFF00"></path>
                <path d="M4.2140866,15.7169875 C9.0324417,6.38215449 18.7709048,0 30,0 C34.6843127,0 39.1092239,1.11063039 43.0257725,3.08293028 L17.3029009,28.8058018 L4.2140866,15.7169875 Z" id="teal" fill="#00EFC8"></path>
                <g id="circle">
                    <use fill="#FFFFFF" fill-rule="evenodd" xlink:href="#path-1"></use>
                    <path stroke="#000000" stroke-width="5" d="M30.5,50.5 C41.545695,50.5 50.5,41.545695 50.5,30.5 C50.5,19.454305 41.545695,10.5 30.5,10.5 C19.454305,10.5 10.5,19.454305 10.5,30.5 C10.5,41.545695 19.454305,50.5 30.5,50.5 Z"></path>
                </g>
                <g id="rectangles">
                    <use fill="url(#linearGradient-2)" xlink:href="#path-3"></use>
                    <use fill="#111112" xlink:href="#path-3"></use>
                </g>
            </g>
        </g>
    </g>
</svg>