<?xml version="1.0" encoding="UTF-8"?>
<svg id="target" viewBox="0 0 32 22" version="1.1" xmlns="http://www.w3.org/2000/svg" xmlns:xlink="http://www.w3.org/1999/xlink">
    <!-- Generator: Sketch 45.1 (43504) - http://www.bohemiancoding.com/sketch -->
    <title>eyedropper/dark copy</title>
    <desc>Created with Sketch.</desc>
    <defs></defs>
    <g id="Symbols" stroke="none" stroke-width="1" fill="none" fill-rule="evenodd">
        <g id="eyedropper/dark-copy" fill-rule="nonzero" fill="#000000">
            <g id="Group">
                <path d="M18.2178076,10.3670116 C18.5343796,10.9736104 18.5680719,11.7039044 18.2805333,12.3515814 L18.2351226,12.4538684 C18.0110254,12.9586445 17.4201568,13.1861797 16.9153808,12.9620825 C16.8030767,12.9122247 16.7009229,12.8420964 16.6140379,12.7552113 L13.0938463,9.23501972 C12.703322,8.84449543 12.703322,8.21133045 13.0938463,7.82080616 C13.1807313,7.73392114 13.282885,7.66379283 13.3951891,7.61393501 L13.4974762,7.56852431 C14.1451667,7.2809797 14.8754775,7.3146794 15.4820838,7.63126973 C15.5080952,7.5975697 15.5365519,7.5651485 15.5674538,7.53424659 L17.6269041,5.4747963 C18.3855741,4.71612628 19.6156212,4.71612628 20.3742912,5.4747963 C21.1329612,6.23346631 21.1329612,7.46351344 20.3742912,8.22218345 L18.3148409,10.2816337 C18.2839359,10.3125388 18.2515113,10.3409981 18.2178076,10.3670116 L18.2178076,10.3670116 Z M18.5244044,10.0720703 L13.2285734,15.3679013 C12.4663743,16.1301004 11.2334663,16.1329612 10.4747963,15.3742912 C9.71612628,14.6156212 9.71898717,13.3827132 10.4811863,12.6205141 L15.7770172,7.32468316 C16.5392163,6.56248406 17.7721243,6.55962317 18.5307943,7.31829318 C19.2894644,8.0769632 19.2866035,9.30987121 18.5244044,10.0720703 Z M16.463864,8.01152995 L11.1680331,13.3073609 C10.7869335,13.6884604 10.7855031,14.3049144 11.1648381,14.6842495 C11.5441731,15.0635845 12.1606271,15.062154 12.5417266,14.6810545 L17.8375576,9.38522352 C18.2186571,9.00412397 18.2200876,8.38766997 17.8407526,8.00833496 C17.4614176,7.62899995 16.8449636,7.6304304 16.463864,8.01152995 Z" id="icon"></path>
            </g>
        </g>
    </g>
</svg>