<?xml version="1.0" encoding="UTF-8"?>
<svg id="target" viewBox="0 0 12 12" version="1.1" xmlns="http://www.w3.org/2000/svg" xmlns:xlink="http://www.w3.org/1999/xlink">
    <!-- Generator: Sketch 45.2 (43514) - http://www.bohemiancoding.com/sketch -->
    <title>settings-icon</title>
    <desc>Created with Sketch.</desc>
    <defs></defs>
    <g id="Symbols" stroke="none" stroke-width="1" fill="none" fill-rule="evenodd">
        <g id="controls/settings-light-active" transform="translate(-8.000000, -20.000000)" fill="#222222">
            <path d="M15.6990569,21.8981138 L17.0007981,21.4642001 C17.43686,21.3188461 17.9176194,21.432338 18.2426407,21.7573593 C18.567662,22.0823806 18.6811539,22.56314 18.5357999,22.9992019 L18.1018862,24.3009431 L19.3291796,24.9145898 C19.7403027,25.1201513 20,25.5403505 20,26 C20,26.4596495 19.7403027,26.8798487 19.3291796,27.0854102 L18.1018862,27.6990569 L18.5357999,29.0007981 C18.6811539,29.43686 18.567662,29.9176194 18.2426407,30.2426407 C17.9176194,30.567662 17.43686,30.6811539 17.0007981,30.5357999 L15.6990569,30.1018862 L15.0854102,31.3291796 C14.8798487,31.7403027 14.4596495,32 14,32 C13.5403505,32 13.1201513,31.7403027 12.9145898,31.3291796 L12.3009431,30.1018862 L10.9992019,30.5357999 C10.56314,30.6811539 10.0823806,30.567662 9.75735931,30.2426407 C9.432338,29.9176194 9.3188461,29.43686 9.46420005,29.0007981 L9.89811379,27.6990569 L8.67082039,27.0854102 C8.25969734,26.8798487 8,26.4596495 8,26 C8,25.5403505 8.25969734,25.1201513 8.67082039,24.9145898 L9.89811379,24.3009431 L9.46420005,22.9992019 C9.3188461,22.56314 9.432338,22.0823806 9.75735931,21.7573593 C10.0823806,21.432338 10.56314,21.3188461 10.9992019,21.4642001 L12.3009431,21.8981138 L12.9145898,20.6708204 C13.1201513,20.2596973 13.5403505,20 14,20 C14.4596495,20 14.8798487,20.2596973 15.0854102,20.6708204 L15.6990569,21.8981138 Z M14,28 C15.1045695,28 16,27.1045695 16,26 C16,24.8954305 15.1045695,24 14,24 C12.8954305,24 12,24.8954305 12,26 C12,27.1045695 12.8954305,28 14,28 Z" id="settings-icon"></path>
        </g>
    </g>
</svg>