<svg id="target" width="57px" height="23px" viewBox="0 0 57 23" version="1.1" xmlns="http://www.w3.org/2000/svg" xmlns:xlink="http://www.w3.org/1999/xlink">
    <g id="Page-1" stroke="none" stroke-width="1" fill="none" fill-rule="evenodd">
        <g id="landing-v0.1" transform="translate(-43.000000, -28.000000)" fill="currentColor">
            <g id="top">
                <path d="M93.16,36.05 C89.11,36.05 85.75,39.41 85.75,43.46 C85.75,45.26 84.28,46.73 82.48,46.73 C80.68,46.73 79.21,45.26 79.21,43.46 L79.21,28.85 L75.07,28.85 L75.07,36.8 C74.08,36.32 72.97,36.05 71.8,36.05 C69.7,36.05 67.81,36.92 66.46,38.33 C65.11,36.92 63.22,36.05 61.12,36.05 C59.02,36.05 57.13,36.92 55.78,38.33 C54.43,36.92 52.54,36.05 50.44,36.05 C46.36,36.05 43.03,39.38 43.03,43.46 L43.03,46.73 L47.17,46.73 L47.17,43.46 C47.17,41.66 48.64,40.19 50.44,40.19 C52.24,40.19 53.71,41.66 53.71,43.46 L53.71,46.73 L57.85,46.73 L57.85,43.46 C57.85,41.66 59.32,40.19 61.12,40.19 C62.92,40.19 64.39,41.66 64.39,43.46 C64.39,47.45 67.63,50.87 71.8,50.87 L71.8,46.73 C70,46.73 68.53,45.26 68.53,43.46 C68.53,41.66 70,40.19 71.8,40.19 C73.6,40.19 75.07,41.66 75.07,43.46 C75.07,47.54 78.4,50.87 82.48,50.87 C86.56,50.87 89.89,47.54 89.89,43.46 C89.89,41.66 91.36,40.19 93.16,40.19 C94.42,40.19 95.5,40.91 96.07,41.96 L99.67,39.92 C98.41,37.61 95.95,36.05 93.16,36.05 Z" id="mds"></path>
            </g>
        </g>
    </g>
</svg>